<svg width="494" height="109" viewBox="0 0 494 109" fill="none" xmlns="http://www.w3.org/2000/svg">
<g clip-path="url(#clip0)">
<path d="M420.333 106.988C415.462 106.988 410.89 107.063 406.394 106.914C405.869 106.914 405.045 105.647 405.045 104.977C404.895 100.581 404.97 96.2597 404.97 91.864C404.97 74.9514 404.97 58.0389 404.97 41.1264C404.97 37.8482 405.869 35.0916 408.942 33.527C412.089 31.9624 415.162 32.4094 417.935 34.6445C418.459 35.0916 419.658 35.3151 420.258 35.0171C430.45 30.7703 439.668 32.4839 448.136 39.1148C448.511 39.4128 448.886 39.6363 449.26 39.8599C451.209 38.5933 453.082 37.2522 455.106 36.1346C472.117 26.5236 493.551 38.5933 493.925 58.0389C494.225 73.4614 493.925 88.8838 494 104.232C494 106.243 493.326 106.839 491.302 106.765C487.181 106.616 483.059 106.69 478.562 106.69C478.562 105.498 478.562 104.455 478.562 103.412C478.562 88.7348 478.562 74.0574 478.562 59.3055C478.562 53.3452 475.04 49.2474 469.12 48.1298C463.949 47.1613 458.103 51.3335 457.354 56.5488C457.204 57.8899 457.129 59.231 457.129 60.5721C457.129 74.7279 457.129 88.8838 457.129 103.04C457.129 104.157 456.979 105.275 456.904 106.69C452.108 106.69 447.612 106.765 443.04 106.616C442.516 106.616 441.841 105.722 441.691 105.126C441.466 104.306 441.616 103.338 441.616 102.444C441.616 87.8407 441.616 73.2378 441.616 58.635C441.616 54.2392 439.443 51.1845 435.771 49.1729C432.099 47.1613 428.352 47.5338 424.904 49.918C421.982 52.0041 420.258 54.7607 420.333 58.486C420.333 73.5359 420.333 88.5858 420.333 103.636C420.333 104.679 420.333 105.573 420.333 106.988Z" fill="black"/>
<path d="M381.663 60.1251C381.663 66.2344 381.663 72.4183 381.663 78.5277C381.588 93.5031 369.672 106.467 354.684 108.404C338.796 110.49 323.658 100.208 320.436 84.4135C319.911 82.0294 319.686 79.4962 319.686 77.0376C319.611 65.1169 319.611 53.1962 319.686 41.2755C319.686 35.0916 324.332 31.3664 329.878 33.0055C332.801 33.8995 334.599 35.9111 334.974 38.8913C335.274 41.4245 335.274 44.0321 335.274 46.6398C335.274 57.0704 335.274 67.501 335.349 77.8571C335.349 86.4251 341.044 92.609 350.112 93.3541C357.307 93.8756 364.126 88.8838 366.075 80.9863C366.3 80.0178 366.3 79.0492 366.3 78.0806C366.3 65.6384 366.3 53.1217 366.3 40.6794C366.3 37.6247 367.499 35.3151 370.122 33.825C372.82 32.2604 375.667 32.4839 378.29 34.123C380.763 35.6876 381.738 38.0718 381.738 40.9029C381.663 47.3103 381.663 53.7177 381.663 60.1251Z" fill="black"/>
<path d="M281.241 106.765C281.166 105.349 281.091 104.306 281.091 103.263C281.091 72.5673 281.016 41.8715 281.166 11.1756C281.166 8.56799 281.541 5.81132 282.515 3.42718C283.714 0.372498 286.712 -0.223538 289.709 0.0744798C292.857 0.372498 295.105 1.93709 296.079 4.99177C296.529 6.33285 296.604 7.82294 296.604 9.16402C296.679 15.9439 296.754 22.7238 296.604 29.4292C296.529 32.1114 297.428 32.9309 299.976 32.6329C301.775 32.4839 303.573 32.6329 305.372 32.6329C307.021 32.5584 307.62 33.3035 307.545 34.8681C307.47 38.5188 307.47 42.1695 307.545 45.8202C307.545 47.4593 306.871 47.9808 305.297 47.9808C303.274 47.9063 301.175 48.0553 299.152 47.9063C297.278 47.7573 296.604 48.5024 296.679 50.365C296.754 54.4627 296.679 58.5605 296.679 62.6582C296.679 76.367 296.604 90.0759 296.754 103.785C296.754 106.094 296.154 106.914 293.756 106.765C289.634 106.616 285.587 106.765 281.241 106.765Z" fill="black"/>
<path d="M242.572 55.7293C242.572 40.0089 242.572 24.2139 242.572 8.49351C242.572 3.05468 245.419 0 250.291 0C255.087 0 258.01 3.2782 258.01 8.64252C258.01 40.2324 258.01 71.8223 258.085 103.412C258.085 106.094 257.335 107.063 254.637 106.839C251.5 106.839 249.5 106.839 246.019 106.839C243.396 107.063 242.497 106.392 242.572 103.561C242.722 87.6172 242.572 71.6733 242.572 55.7293Z" fill="black"/>
<path d="M219.34 66.3835C219.34 57.741 219.34 49.0985 219.34 40.4559C219.34 36.3582 217.017 33.4525 213.344 32.7075C208.548 31.8134 205.476 34.0486 203.602 39.7854C185.017 27.1942 165.082 32.5585 154.441 42.8401C141.176 55.5803 137.654 74.5045 148.07 90.2249C162.01 111.31 181.869 113.694 203.902 101.773C203.902 102.965 203.977 103.934 203.902 104.902C203.752 106.69 204.501 107.137 206.3 106.988C210 106.988 212.808 107 216 107C218.548 107.149 219.415 106.169 219.34 103.785C219.265 91.3425 219.34 78.8257 219.34 66.3835ZM181.045 93.9501C167.63 93.9501 157.963 84.4136 157.738 71.2263C157.438 57.0704 169.429 47.7574 180.97 47.9064C193.785 48.0554 203.977 58.188 203.977 70.9283C204.127 82.4764 195.209 93.9501 181.045 93.9501Z" fill="black"/>
<path d="M296.829 106.765C296.904 105.349 296.979 104.306 296.979 103.263C296.979 72.5673 297.054 41.8715 296.904 11.1756C296.904 8.56799 296.529 5.81132 295.555 3.42718C294.356 0.372498 291.358 -0.223538 288.361 0.0744798C285.213 0.372498 282.965 1.93709 281.991 4.99177C281.541 6.33285 281.466 7.82294 281.466 9.16402C281.391 15.9439 281.316 22.7238 281.466 29.4292C281.541 32.1114 280.642 32.9309 278.094 32.6329C276.295 32.4839 274.497 32.6329 272.698 32.6329C271.049 32.5584 270.45 33.3035 270.525 34.8681C270.6 38.5188 270.6 42.1695 270.525 45.8202C270.525 47.4593 271.199 47.9808 272.773 47.9808C274.796 47.9063 276.895 48.0553 278.918 47.9063C280.792 47.7573 281.466 48.5024 281.391 50.365C281.316 54.4627 281.391 58.5605 281.391 62.6582C281.391 76.367 281.466 90.0759 281.316 103.785C281.316 106.094 281.916 106.914 284.314 106.765C288.436 106.616 292.483 106.765 296.829 106.765Z" fill="black"/>
</g>
<path d="M60.3366 64.5629L21.0615 33.0439L74.921 35.4554C78.3363 35.5739 80.422 39.2532 78.7661 42.239L67.1572 63.1746C65.7941 65.6327 62.5541 66.2923 60.3366 64.5629Z" fill="black"/>
<path d="M106.529 13C111.247 13 114.348 17.9204 112.306 22.1689L71.3986 107.313C71.0686 107.999 70.0928 108.006 69.7537 107.325L63.9918 95.7547C62.7098 93.181 62.7148 90.1547 64.0046 87.5851L90.007 35.7824C91.5046 32.7988 89.4001 29.2699 86.0604 29.1644L20.5227 27.0964C18.5394 27.0338 16.6302 26.3293 15.0827 25.0889L0 13H106.529Z" fill="black"/>
<defs>
<clipPath id="clip0">
<rect width="352" height="109" fill="white" transform="translate(142)"/>
</clipPath>
</defs>
</svg>
