<svg width="10" height="10" viewBox="0 0 10 10" fill="none" xmlns="http://www.w3.org/2000/svg">
<path d="M1.51745 0.457098C1.21762 0.171317 0.74288 0.182711 0.457098 0.482547C0.171317 0.782383 0.182711 1.25712 0.482547 1.5429L1.51745 0.457098ZM8.48255 9.1679C8.78238 9.45368 9.25712 9.44229 9.5429 9.14245C9.82868 8.84262 9.81729 8.36788 9.51745 8.0821L8.48255 9.1679ZM0.482547 1.5429L8.48255 9.1679L9.51745 8.0821L1.51745 0.457098L0.482547 1.5429Z" fill="#32465F"/>
<path d="M8.48255 0.457098C8.78238 0.171317 9.25712 0.182711 9.5429 0.482547C9.82868 0.782383 9.81729 1.25712 9.51745 1.5429L8.48255 0.457098ZM1.51745 9.1679C1.21762 9.45368 0.74288 9.44229 0.457098 9.14245C0.171316 8.84262 0.182711 8.36788 0.482547 8.0821L1.51745 9.1679ZM9.51745 1.5429L1.51745 9.1679L0.482547 8.0821L8.48255 0.457098L9.51745 1.5429Z" fill="#32465F"/>
</svg>
